<svg width="24" height="24" viewBox="0 0 24 24" fill="none" xmlns="http://www.w3.org/2000/svg">
<path d="M11.5553 1.86568C11.7412 1.50366 12.2588 1.50366 12.4447 1.86568L15.1949 7.21888C15.2675 7.3602 15.403 7.4586 15.5598 7.48398L21.5009 8.44535C21.9027 8.51036 22.0626 9.00254 21.7757 9.2913L17.5344 13.5611C17.4224 13.6738 17.3707 13.8331 17.395 13.9901L18.3166 19.9374C18.3789 20.3396 17.9603 20.6438 17.597 20.4603L12.2255 17.746C12.0837 17.6743 11.9163 17.6743 11.7745 17.7459L6.403 20.4603C6.03974 20.6438 5.62107 20.3396 5.68339 19.9374L6.60496 13.9901C6.62929 13.8331 6.57756 13.6738 6.46559 13.5611L2.22425 9.2913C1.93743 9.00254 2.09734 8.51036 2.49912 8.44535L8.44018 7.48398C8.59701 7.4586 8.73245 7.3602 8.80505 7.21888L11.5553 1.86568Z" stroke="black" stroke-width="1.5"/>
</svg>
