<svg width="16" height="16" viewBox="0 0 16 16" fill="none" xmlns="http://www.w3.org/2000/svg">
<path d="M10.8998 13.6613C5.27168 12.093 2.79097 7.46902 2.11585 4.87419C2.03274 4.55474 2.13956 4.22044 2.37297 3.98703L3.60418 2.75582C4.01322 2.34678 4.68295 2.36908 5.06387 2.80442L7.04793 5.07192C7.39461 5.46813 7.37473 6.06527 7.00246 6.43754L6.64836 6.79164C6.39998 7.04002 6.28858 7.40632 6.43441 7.72588C6.81845 8.56746 7.51733 9.08525 8.07868 9.35467C8.39536 9.50666 8.75998 9.40002 9.00836 9.15164L9.36246 8.79754C9.73473 8.42527 10.3319 8.40539 10.7281 8.75207L12.9956 10.7361C13.4309 11.1171 13.4532 11.7868 13.0442 12.1958L11.8339 13.4061C11.589 13.651 11.2334 13.7543 10.8998 13.6613Z" stroke="black" stroke-linecap="round" stroke-linejoin="round"/>
</svg>
