<svg width="18" height="18" viewBox="0 0 18 18" fill="none" xmlns="http://www.w3.org/2000/svg">
<path d="M9.25 17C9.94036 17 10.5 16.4404 10.5 15.75C10.5 15.4686 10.407 15.2089 10.2501 15H8.24991C8.09299 15.2089 8 15.4686 8 15.75C8 16.4404 8.55964 17 9.25 17Z" stroke="black" stroke-width="1.5"/>
<path d="M3.68182 8.31818C3.68182 5.38103 6.06285 3 9 3V3C11.9372 3 14.3182 5.38103 14.3182 8.31818V12.8182L14.7003 13.5237C15.0613 14.19 14.5788 15 13.8211 15H4.17895C3.42118 15 2.93874 14.19 3.29965 13.5237L3.68182 12.8182V8.31818Z" stroke="black" stroke-width="1.5"/>
<path d="M9.75 1.5C9.75 1.08579 9.41421 0.75 9 0.75C8.58579 0.75 8.25 1.08579 8.25 1.5H9.75ZM8.25 1.5V2.5H9.75V1.5H8.25Z" fill="black"/>
</svg>
