<svg width="28" height="28" viewBox="0 0 28 28" fill="none" xmlns="http://www.w3.org/2000/svg">
<path d="M24.664 23.3727V10.8165C24.664 10.3588 24.4218 9.93535 24.0273 9.70331L14.9868 4.38537C14.5826 4.14762 14.0814 4.14762 13.6772 4.38537L4.63668 9.70331C4.24221 9.93535 4 10.3588 4 10.8165V23.3727C4 24.086 4.57822 24.6642 5.2915 24.6642H9.166H12.2656C12.3369 24.6642 12.3947 24.6064 12.3947 24.535V22.4041V21.4354C12.3947 19.6522 12.5488 18.2067 14.332 18.2067C16.1152 18.2067 16.2692 19.6522 16.2692 21.4354V24.535C16.2692 24.6064 16.3271 24.6642 16.3984 24.6642H19.498H23.3725C24.0858 24.6642 24.664 24.086 24.664 23.3727Z" stroke="#909090" stroke-width="1.5"/>
</svg>
