<svg width="14" height="14" viewBox="0 0 14 14" fill="none" xmlns="http://www.w3.org/2000/svg">
<path d="M6.52447 2.46353C6.67415 2.00287 7.32585 2.00287 7.47553 2.46353L8.23483 4.80041C8.30176 5.00642 8.49374 5.1459 8.71036 5.1459H11.1675C11.6519 5.1459 11.8532 5.76571 11.4614 6.05041L9.47352 7.49468C9.29828 7.622 9.22495 7.84768 9.29188 8.0537L10.0512 10.3906C10.2009 10.8512 9.67362 11.2343 9.28176 10.9496L7.29389 9.50532C7.11865 9.378 6.88135 9.378 6.70611 9.50532L4.71824 10.9496C4.32638 11.2343 3.79914 10.8512 3.94882 10.3906L4.70812 8.0537C4.77505 7.84768 4.70172 7.622 4.52648 7.49468L2.53861 6.05041C2.14675 5.76571 2.34814 5.1459 2.8325 5.1459H5.28964C5.50626 5.1459 5.69824 5.00642 5.76517 4.80041L6.52447 2.46353Z" fill="#E74242"/>
<path d="M6.52447 2.46353C6.67415 2.00287 7.32585 2.00287 7.47553 2.46353L8.23483 4.80041C8.30176 5.00642 8.49374 5.1459 8.71036 5.1459H11.1675C11.6519 5.1459 11.8532 5.76571 11.4614 6.05041L9.47352 7.49468C9.29828 7.622 9.22495 7.84768 9.29188 8.0537L10.0512 10.3906C10.2009 10.8512 9.67362 11.2343 9.28176 10.9496L7.29389 9.50532C7.11865 9.378 6.88135 9.378 6.70611 9.50532L4.71824 10.9496C4.32638 11.2343 3.79914 10.8512 3.94882 10.3906L4.70812 8.0537C4.77505 7.84768 4.70172 7.622 4.52648 7.49468L2.53861 6.05041C2.14675 5.76571 2.34814 5.1459 2.8325 5.1459H5.28964C5.50626 5.1459 5.69824 5.00642 5.76517 4.80041L6.52447 2.46353Z" fill="#CCCCCC"/>
</svg>
