<svg width="16" height="16" viewBox="0 0 16 16" fill="none" xmlns="http://www.w3.org/2000/svg">
<path fill-rule="evenodd" clip-rule="evenodd" d="M7.75 13.5C10.9257 13.5 13.5 10.9257 13.5 7.75C13.5 4.57434 10.9257 2 7.75 2C4.57434 2 2 4.57434 2 7.75C2 10.9257 4.57434 13.5 7.75 13.5ZM8.29993 5.20312C8.29993 4.87183 8.03137 4.60315 7.69995 4.60315C7.36865 4.60315 7.09998 4.87183 7.09998 5.20312V8.38501C7.09998 8.62024 7.23755 8.83386 7.45166 8.93115L9.45166 9.84033C9.75342 9.97742 10.1091 9.84399 10.2462 9.54236C10.3833 9.24072 10.2499 8.88501 9.94824 8.7478L8.29993 7.99866V5.20312Z" fill="#D9D9D9"/>
</svg>
